<?xml version="1.0" encoding="utf-8"?>
<!-- Generator: Adobe Illustrator 19.1.0, SVG Export Plug-In . SVG Version: 6.00 Build 0)  -->
<svg version="1.1" id="Calque_1" xmlns="http://www.w3.org/2000/svg" xmlns:xlink="http://www.w3.org/1999/xlink" x="0px" y="0px"
	 viewBox="0 0 560 537.3" style="enable-background:new 0 0 560 537.3;" xml:space="preserve">
<style type="text/css">
	.st0{opacity:0.2;}
	.st1{fill:#EFB102;}
</style>
<g class="st0">
	<path class="st1" d="M357.2,442.2c0,8.5-6.9,15.4-15.4,15.4H218.3c-8.5,0-15.4-6.9-15.4-15.4c0-8.5,6.9-15.4,15.4-15.4h123.5
		C350.3,426.8,357.2,433.7,357.2,442.2z"/>
	<path class="st1" d="M341.7,465.4H218.3c-10.2,0-18,9.8-14.6,20.5c2,6.4,8.5,10.4,15.3,10.4h0.2c8.9,0,17.1,5,21.1,13l0.2,0.3
		c5.4,10.7,16.4,17.5,28.4,17.5h22.5c12,0,23-6.8,28.4-17.5l0.2-0.3c4-8,12.1-13,21.1-13h0.2c6.7,0,13.3-4,15.3-10.4
		C359.8,475.2,351.9,465.4,341.7,465.4z"/>
	<path class="st1" d="M342.6,381.4c9.6-86.9,99.4-106.2,99.4-208.5c0-89.5-72.6-162.1-162.1-162.1S117.9,83.4,117.9,173
		c0,102.3,89.8,121.6,99.4,208.5c-8.1,0.5-14.5,7.8-14.5,16.1c0,8.5,6.9,16.1,15.4,16.1h123.5c8.5,0,15.4-7.6,15.4-16.1
		C357.2,389.3,350.7,381.9,342.6,381.4z M363.2,69.2c11.6-5,31.4,14.8,44.1,44.3c12.8,29.5,13.7,57.5,2.1,62.5
		c-11.6,5-31.4-14.8-44.1-44.3S351.6,74.3,363.2,69.2z"/>
</g>
</svg>
