<?xml version="1.0" encoding="utf-8"?>
<!-- Generator: Adobe Illustrator 19.1.0, SVG Export Plug-In . SVG Version: 6.00 Build 0)  -->
<svg version="1.1" id="Calque_1" xmlns="http://www.w3.org/2000/svg" xmlns:xlink="http://www.w3.org/1999/xlink" x="0px" y="0px"
	 viewBox="0 0 560 537.3" style="enable-background:new 0 0 560 537.3;" xml:space="preserve">
<style type="text/css">
	.st0{opacity:0.2;fill:#EFB102;}
</style>
<path class="st0" d="M347.2,374.9c-13.4-2.1-13.7-39-13.7-39s39.4-39,48-91.5c23.1,0,37.4-55.8,14.3-75.4C396.7,148.4,425.4,7,280,7
	C134.6,7,163.3,148.4,164.2,169.1c-23.1,19.6-8.8,75.4,14.3,75.4c8.6,52.5,48,91.5,48,91.5s-0.3,36.9-13.7,39
	C169.6,381.8,8.3,453,8.3,531H280h271.7C551.7,453,390.4,381.8,347.2,374.9z"/>
</svg>
